<mxfile host="app.diagrams.net" modified="2023-08-02T21:53:36.514Z" agent="Mozilla/5.0 (Windows NT 10.0; Win64; x64) AppleWebKit/537.36 (KHTML, like Gecko) Chrome/114.0.0.0 Safari/537.36 OPR/100.0.0.0 (Edition std-1)" etag="xAwiT4lyvQiYElnfSEXp" version="21.1.1" type="github">
  <diagram name="Página-1" id="jZxrRITYODzHujeGRhK7">
    <mxGraphModel dx="1393" dy="766" grid="1" gridSize="10" guides="1" tooltips="1" connect="1" arrows="1" fold="1" page="1" pageScale="1" pageWidth="827" pageHeight="1169" math="0" shadow="0">
      <root>
        <mxCell id="0" />
        <mxCell id="1" parent="0" />
        <mxCell id="nsG4SFN4w8CyHGUnCmbV-1" value="" style="rounded=0;whiteSpace=wrap;html=1;" vertex="1" parent="1">
          <mxGeometry x="14" y="20" width="800" height="600" as="geometry" />
        </mxCell>
        <mxCell id="nsG4SFN4w8CyHGUnCmbV-2" value="" style="rounded=0;whiteSpace=wrap;html=1;" vertex="1" parent="1">
          <mxGeometry x="24" y="30" width="780" height="60" as="geometry" />
        </mxCell>
        <mxCell id="nsG4SFN4w8CyHGUnCmbV-3" value="" style="shape=actor;whiteSpace=wrap;html=1;" vertex="1" parent="1">
          <mxGeometry x="750" y="40" width="40" height="40" as="geometry" />
        </mxCell>
        <mxCell id="nsG4SFN4w8CyHGUnCmbV-12" value="" style="group" vertex="1" connectable="0" parent="1">
          <mxGeometry x="60" y="130" width="160" height="170" as="geometry" />
        </mxCell>
        <mxCell id="nsG4SFN4w8CyHGUnCmbV-4" value="" style="rounded=1;whiteSpace=wrap;html=1;" vertex="1" parent="nsG4SFN4w8CyHGUnCmbV-12">
          <mxGeometry width="160" height="150" as="geometry" />
        </mxCell>
        <mxCell id="nsG4SFN4w8CyHGUnCmbV-5" value="" style="whiteSpace=wrap;html=1;aspect=fixed;" vertex="1" parent="nsG4SFN4w8CyHGUnCmbV-12">
          <mxGeometry x="20" width="120" height="120" as="geometry" />
        </mxCell>
        <mxCell id="nsG4SFN4w8CyHGUnCmbV-6" value="Exposição A" style="text;html=1;strokeColor=none;fillColor=none;align=center;verticalAlign=middle;whiteSpace=wrap;rounded=0;" vertex="1" parent="nsG4SFN4w8CyHGUnCmbV-12">
          <mxGeometry x="20" y="120" width="120" height="30" as="geometry" />
        </mxCell>
        <mxCell id="nsG4SFN4w8CyHGUnCmbV-7" value="organizada por @artistaA" style="text;html=1;strokeColor=none;fillColor=none;align=center;verticalAlign=middle;whiteSpace=wrap;rounded=0;" vertex="1" parent="nsG4SFN4w8CyHGUnCmbV-12">
          <mxGeometry x="20" y="150" width="140" height="20" as="geometry" />
        </mxCell>
        <mxCell id="nsG4SFN4w8CyHGUnCmbV-13" value="" style="group" vertex="1" connectable="0" parent="1">
          <mxGeometry x="240" y="130" width="160" height="170" as="geometry" />
        </mxCell>
        <mxCell id="nsG4SFN4w8CyHGUnCmbV-14" value="" style="rounded=1;whiteSpace=wrap;html=1;" vertex="1" parent="nsG4SFN4w8CyHGUnCmbV-13">
          <mxGeometry width="160" height="150" as="geometry" />
        </mxCell>
        <mxCell id="nsG4SFN4w8CyHGUnCmbV-15" value="" style="whiteSpace=wrap;html=1;aspect=fixed;" vertex="1" parent="nsG4SFN4w8CyHGUnCmbV-13">
          <mxGeometry x="20" width="120" height="120" as="geometry" />
        </mxCell>
        <mxCell id="nsG4SFN4w8CyHGUnCmbV-16" value="Exposição B" style="text;html=1;strokeColor=none;fillColor=none;align=center;verticalAlign=middle;whiteSpace=wrap;rounded=0;" vertex="1" parent="nsG4SFN4w8CyHGUnCmbV-13">
          <mxGeometry x="20" y="120" width="120" height="30" as="geometry" />
        </mxCell>
        <mxCell id="nsG4SFN4w8CyHGUnCmbV-17" value="organizada por @artistaA" style="text;html=1;strokeColor=none;fillColor=none;align=center;verticalAlign=middle;whiteSpace=wrap;rounded=0;" vertex="1" parent="nsG4SFN4w8CyHGUnCmbV-13">
          <mxGeometry x="20" y="150" width="140" height="20" as="geometry" />
        </mxCell>
        <mxCell id="nsG4SFN4w8CyHGUnCmbV-18" value="" style="group" vertex="1" connectable="0" parent="1">
          <mxGeometry x="420" y="130" width="160" height="170" as="geometry" />
        </mxCell>
        <mxCell id="nsG4SFN4w8CyHGUnCmbV-19" value="" style="rounded=1;whiteSpace=wrap;html=1;" vertex="1" parent="nsG4SFN4w8CyHGUnCmbV-18">
          <mxGeometry width="160" height="150" as="geometry" />
        </mxCell>
        <mxCell id="nsG4SFN4w8CyHGUnCmbV-20" value="" style="whiteSpace=wrap;html=1;aspect=fixed;" vertex="1" parent="nsG4SFN4w8CyHGUnCmbV-18">
          <mxGeometry x="20" width="120" height="120" as="geometry" />
        </mxCell>
        <mxCell id="nsG4SFN4w8CyHGUnCmbV-21" value="Exposição C" style="text;html=1;strokeColor=none;fillColor=none;align=center;verticalAlign=middle;whiteSpace=wrap;rounded=0;" vertex="1" parent="nsG4SFN4w8CyHGUnCmbV-18">
          <mxGeometry x="20" y="120" width="120" height="30" as="geometry" />
        </mxCell>
        <mxCell id="nsG4SFN4w8CyHGUnCmbV-22" value="organizada por @artistaB" style="text;html=1;strokeColor=none;fillColor=none;align=center;verticalAlign=middle;whiteSpace=wrap;rounded=0;" vertex="1" parent="nsG4SFN4w8CyHGUnCmbV-18">
          <mxGeometry x="20" y="150" width="140" height="20" as="geometry" />
        </mxCell>
        <mxCell id="nsG4SFN4w8CyHGUnCmbV-23" value="" style="rounded=0;whiteSpace=wrap;html=1;" vertex="1" parent="1">
          <mxGeometry x="14" y="650" width="800" height="600" as="geometry" />
        </mxCell>
        <mxCell id="nsG4SFN4w8CyHGUnCmbV-24" value="" style="rounded=0;whiteSpace=wrap;html=1;" vertex="1" parent="1">
          <mxGeometry x="24" y="660" width="780" height="60" as="geometry" />
        </mxCell>
        <mxCell id="nsG4SFN4w8CyHGUnCmbV-25" value="" style="shape=actor;whiteSpace=wrap;html=1;" vertex="1" parent="1">
          <mxGeometry x="750" y="670" width="40" height="40" as="geometry" />
        </mxCell>
        <mxCell id="nsG4SFN4w8CyHGUnCmbV-41" value="Painel &quot;Painel A&quot;, de @artistaC" style="rounded=1;whiteSpace=wrap;html=1;" vertex="1" parent="1">
          <mxGeometry x="40" y="760" width="350" height="60" as="geometry" />
        </mxCell>
        <mxCell id="nsG4SFN4w8CyHGUnCmbV-42" value="Painel &quot;Painel B&quot;, de @artistaB&lt;br&gt;(part. @artistaJ)" style="rounded=1;whiteSpace=wrap;html=1;" vertex="1" parent="1">
          <mxGeometry x="440" y="760" width="350" height="60" as="geometry" />
        </mxCell>
        <mxCell id="nsG4SFN4w8CyHGUnCmbV-43" value="Painel &quot;Painel C&quot;, de @artistaD" style="rounded=1;whiteSpace=wrap;html=1;" vertex="1" parent="1">
          <mxGeometry x="40" y="860" width="350" height="60" as="geometry" />
        </mxCell>
      </root>
    </mxGraphModel>
  </diagram>
</mxfile>
